<?xml version="1.0" encoding="UTF-8"?>
<!DOCTYPE svg PUBLIC "-//W3C//DTD SVG 1.1//EN" "http://www.w3.org/Graphics/SVG/1.1/DTD/svg11.dtd">
<!-- Creator: CorelDRAW 2020 (64-Bit) -->
<svg xmlns="http://www.w3.org/2000/svg" xml:space="preserve" width="39px" height="37px" version="1.1" style="shape-rendering:geometricPrecision; text-rendering:geometricPrecision; image-rendering:optimizeQuality; fill-rule:evenodd; clip-rule:evenodd"
viewBox="0 0 39 37"
 xmlns:xlink="http://www.w3.org/1999/xlink"
 xmlns:xodm="http://www.corel.com/coreldraw/odm/2003">
 <defs>
  <style type="text/css">
   <![CDATA[
    .fil0 {fill:#FFECB2}
    .fil3 {fill:#924B35;fill-rule:nonzero}
    .fil2 {fill:#D6BF83;fill-rule:nonzero}
    .fil4 {fill:#E8D39A;fill-rule:nonzero}
    .fil1 {fill:#FFECB2;fill-rule:nonzero}
   ]]>
  </style>
 </defs>
 <g id="Слой_x0020_1">
  <metadata id="CorelCorpID_0Corel-Layer"/>
  <g id="_1753719928608">
   <rect class="fil0" x="1.34" y="15.98" width="30.97" height="18.91"/>
   <path class="fil1" d="M-0.5 12.18l0 -3.41c0,-2.42 1.92,-4.38 4.28,-4.38l2.38 0 0 3.9 4.75 0 0 -3.9 16.18 0 0 3.9 4.75 0 0 -3.9 2.38 0c2.36,0 4.28,1.96 4.28,4.38l0 24.35c0,2.42 -1.92,4.38 -4.28,4.38l-30.44 0c-2.36,0 -4.28,-1.96 -4.28,-4.38l0 -20.94 0 0zm35.2 12.13c0,-1.32 -1.05,-2.39 -2.34,-2.39 -1.16,0 -1.74,0.6 -2.33,1.79 -0.58,-1.19 -1.16,-1.79 -2.33,-1.79 -1.28,0 -2.33,1.07 -2.33,2.39 0,2.38 2.33,3.74 4.66,6.12 2.33,-2.38 4.67,-3.74 4.67,-6.12l0 0zm-9.52 7.35l0 -1.95 -1.9 0 0 1.95 1.9 0zm0 -11.69l0 -1.95 -1.9 0 0 1.95 1.9 0zm-3.8 11.69l0 -1.95 -1.9 0 0 1.95 1.9 0zm0 -7.79l0 -1.95 -1.9 0 0 1.95 1.9 0zm0 -3.9l0 -1.95 -1.9 0 0 1.95 1.9 0zm-3.81 11.69l0 -1.95 -1.9 0 0 1.95 1.9 0zm0 -3.9l0 -1.94 -1.9 0 0 1.94 1.9 0zm0 -3.89l0 -1.95 -1.9 0 0 1.95 1.9 0zm0 -3.9l0 -1.95 -1.9 0 0 1.95 1.9 0zm-3.8 11.69l0 -1.95 -1.9 0 0 1.95 1.9 0zm0 -3.9l0 -1.94 -1.9 0 0 1.94 1.9 0zm0 -3.89l0 -1.95 -1.9 0 0 1.95 1.9 0zm0 -3.9l0 -1.95 -1.9 0 0 1.95 1.9 0zm-3.81 11.69l0 -1.95 -1.9 0 0 1.95 1.9 0zm0 -3.9l0 -1.94 -1.9 0 0 1.94 1.9 0zm0 -3.89l0 -1.95 -1.9 0 0 1.95 1.9 0zm0 -3.9l0 -1.95 -1.9 0 0 1.95 1.9 0zm-3.8 11.69l0 -1.95 -1.9 0 0 1.95 1.9 0zm0 -3.9l0 -1.94 -1.9 0 0 1.94 1.9 0zm0 -3.89l0 -1.95 -1.9 0 0 1.95 1.9 0zm0 -3.9l0 -1.95 -1.9 0 0 1.95 1.9 0z"/>
   <polygon class="fil2" points="31.84,4.39 31.84,8.29 27.09,8.29 27.09,4.39 27.09,0.5 31.84,0.5 "/>
   <polygon class="fil3" points="28.03,5.54 28.03,1.64 31.84,1.64 31.84,0.5 27.09,0.5 27.09,4.39 27.09,8.29 28.03,8.29 "/>
   <path class="fil4" d="M0.51 34.09l0 -20.93 0 -3.41c0,-2.42 1.92,-4.38 4.29,-4.38l1.36 0 0 -0.98 -2.38 0c-2.36,0 -4.28,1.96 -4.28,4.38l0 3.41 0 20.94c0,1.52 0.76,2.86 1.9,3.64 -0.55,-0.74 -0.89,-1.66 -0.89,-2.67z"/>
   <polygon class="fil2" points="10.91,4.39 10.91,8.29 6.16,8.29 6.16,4.39 6.16,0.5 10.91,0.5 "/>
   <polygon class="fil3" points="7.11,5.54 7.11,1.64 10.91,1.64 10.91,0.5 6.16,0.5 6.16,4.39 6.16,8.29 7.11,8.29 "/>
   <path class="fil4" d="M29.93 12.72l-29.48 0c-0.3,0 -0.53,-0.24 -0.53,-0.54 0,-0.29 0.23,-0.53 0.53,-0.53l29.48 0c0.29,0 0.53,0.24 0.53,0.53 0,0.3 -0.24,0.54 -0.53,0.54z"/>
   <path class="fil4" d="M34.69 12.72l-0.95 0c-0.29,0 -0.53,-0.24 -0.53,-0.54 0,-0.29 0.24,-0.53 0.53,-0.53l0.95 0c0.29,0 0.52,0.24 0.52,0.53 0,0.3 -0.23,0.54 -0.52,0.54z"/>
   <rect class="fil0" x="31.7" y="29.71" width="3.12" height="3.75"/>
   <rect class="fil0" x="27.26" y="18.42" width="9.75" height="12.15"/>
  </g>
 </g>
</svg>
