<?xml version="1.0" encoding="utf-8"?>
<!-- Generator: Adobe Illustrator 15.1.0, SVG Export Plug-In . SVG Version: 6.00 Build 0)  -->
<!DOCTYPE svg PUBLIC "-//W3C//DTD SVG 1.1//EN" "http://www.w3.org/Graphics/SVG/1.1/DTD/svg11.dtd">
<svg version="1.1" id="Слой_1" xmlns:xodm="http://www.corel.com/coreldraw/odm/2003"
	 xmlns="http://www.w3.org/2000/svg" xmlns:xlink="http://www.w3.org/1999/xlink" x="0px" y="0px" width="24px" height="24px"
	 viewBox="0 0 24 24" enable-background="new 0 0 24 24" xml:space="preserve">
<g id="Слой_x0020_1">
	<path fill="#F1E8C7" d="M17.116,15.024h-1.084l-0.385-0.355c1.346-1.566,2.169-3.612,2.169-5.822c0-4.916-3.995-8.911-8.938-8.911
		c-4.915,0-8.911,3.996-8.911,8.911c0,4.942,3.996,8.938,8.911,8.938c2.209,0,4.256-0.823,5.822-2.169l0.356,0.384v1.086
		l6.864,6.851l2.046-2.033L17.116,15.024z M8.879,15.024c-3.419,0-6.178-2.745-6.178-6.178c0-3.419,2.759-6.179,6.178-6.179
		s6.179,2.759,6.179,6.179C15.058,12.266,12.311,15.024,8.879,15.024z"/>
</g>
</svg>
